<svg width="200" height="200" viewBox="0 0 200 200" fill="none" xmlns="http://www.w3.org/2000/svg">
<path fill-rule="evenodd" clip-rule="evenodd" d="M50.4795 56.4471L100 27.8564L149.521 56.4471C150.464 52.3926 152.642 48.8116 155.635 46.1209L100 14L44.3649 46.1209C47.3584 48.8116 49.5356 52.3926 50.4795 56.4471ZM163.344 137.572V80.1891C165.138 80.7168 167.036 81 169 81C171.218 81 173.351 80.6391 175.344 79.9728V144.5L119.715 176.617C119.012 172.487 117.041 168.788 114.218 165.935L163.344 137.572ZM85.7816 165.935L36.6558 137.572V80.1891C34.8624 80.7168 32.9643 81 31 81C28.7825 81 26.6492 80.6391 24.6558 79.9728V144.5L80.2848 176.617C80.9885 172.487 82.9586 168.788 85.7816 165.935Z" fill="#6D7599"/>
<circle cx="100" cy="180" r="13" fill="#6D7599"/>
<circle cx="31" cy="61" r="13" fill="#6D7599"/>
<circle cx="169" cy="61" r="13" fill="#6D7599"/>
<path d="M137.76 102.04C137.76 103.253 137.667 104.98 137.48 107.22H78.82C79.8467 112.727 82.5067 117.113 86.8 120.38C91.1867 123.553 96.6 125.14 103.04 125.14C111.253 125.14 118.02 122.433 123.34 117.02L132.72 127.8C129.36 131.813 125.113 134.847 119.98 136.9C114.847 138.953 109.06 139.98 102.62 139.98C94.4067 139.98 87.1733 138.347 80.92 135.08C74.6667 131.813 69.8133 127.287 66.36 121.5C63 115.62 61.32 108.993 61.32 101.62C61.32 94.34 62.9533 87.8067 66.22 82.02C69.58 76.14 74.2 71.5667 80.08 68.3C85.96 65.0333 92.5867 63.4 99.96 63.4C107.24 63.4 113.727 65.0333 119.42 68.3C125.207 71.4733 129.687 76 132.86 81.88C136.127 87.6667 137.76 94.3867 137.76 102.04ZM99.96 77.4C94.36 77.4 89.6 79.08 85.68 82.44C81.8533 85.7067 79.52 90.0933 78.68 95.6H121.1C120.353 90.1867 118.067 85.8 114.24 82.44C110.413 79.08 105.653 77.4 99.96 77.4Z" fill="#6D7599"/>
</svg>
